{
    "asset" : {
        "generator" : "Khronos glTF Blender I/O v1.0.5",
        "version" : "2.0"
    },
    "scene" : 7,
    "scenes" : [
        {
            "name" : "eyes_rotor"
        },
        {
            "name" : "eyes_rotor_2"
        },
        {
            "name" : "eyes_rotor_n1"
        },
        {
            "name" : "mouths_rotor"
        },
        {
            "name" : "mouths_rotor_2"
        },
        {
            "name" : "noses_rotor"
        },
        {
            "name" : "noses_rotor_2"
        },
        {
            "name" : "rotor_n1_base_scene",
            "nodes" : [
                0
            ]
        },
        {
            "name" : "rotor_scene"
        },
        {
            "name" : "tmp"
        },
        {
            "name" : "tmp2"
        }
    ],
    "nodes" : [
        {
            "mesh" : 0,
            "name" : "frame",
            "scale" : [
                0.38100001215934753,
                0.15000000596046448,
                0.04476523399353027
            ],
            "translation" : [
                0,
                1.3972123861312866,
                0
            ]
        }
    ],
    "materials" : [
        {
            "doubleSided" : true,
            "name" : "blue_mat",
            "pbrMetallicRoughness" : {
                "baseColorFactor" : [
                    0.04791877791285515,
                    0.07664058357477188,
                    0.8000000715255737,
                    1
                ],
                "metallicFactor" : 0,
                "roughnessFactor" : 0.5
            }
        }
    ],
    "meshes" : [
        {
            "name" : "Cube",
            "primitives" : [
                {
                    "attributes" : {
                        "POSITION" : 0,
                        "NORMAL" : 1,
                        "TEXCOORD_0" : 2
                    },
                    "indices" : 3,
                    "material" : 0
                }
            ]
        }
    ],
    "accessors" : [
        {
            "bufferView" : 0,
            "componentType" : 5126,
            "count" : 128,
            "max" : [
                2.434236526489258,
                1,
                1
            ],
            "min" : [
                -2.434236526489258,
                -11.384841918945312,
                -1
            ],
            "type" : "VEC3"
        },
        {
            "bufferView" : 1,
            "componentType" : 5126,
            "count" : 128,
            "type" : "VEC3"
        },
        {
            "bufferView" : 2,
            "componentType" : 5126,
            "count" : 128,
            "type" : "VEC2"
        },
        {
            "bufferView" : 3,
            "componentType" : 5123,
            "count" : 258,
            "type" : "SCALAR"
        }
    ],
    "bufferViews" : [
        {
            "buffer" : 0,
            "byteLength" : 1536,
            "byteOffset" : 0
        },
        {
            "buffer" : 0,
            "byteLength" : 1536,
            "byteOffset" : 1536
        },
        {
            "buffer" : 0,
            "byteLength" : 1024,
            "byteOffset" : 3072
        },
        {
            "buffer" : 0,
            "byteLength" : 516,
            "byteOffset" : 4096
        }
    ],
    "buffers" : [
        {
            "byteLength" : 4612,
            "uri" : "data:application/octet-stream;base64,"
        }
    ]
}
