{
    "asset" : {
        "generator" : "Khronos glTF Blender I/O v1.1.45",
        "version" : "2.0"
    },
    "scene" : 1,
    "scenes" : [
        {
            "name" : "AnimationTestScene"
        },
        {
            "name" : "bjs_export",
            "nodes" : [
                0,
                1,
                2,
                3,
                4
            ]
        },
        {
            "name" : "MainScene"
        }
    ],
    "nodes" : [
        {
            "mesh" : 0,
            "name" : "EncoreTower.002",
            "translation" : [
                -0.21746063232421875,
                89.5299301147461,
                -0.44154345989227295
            ]
        },
        {
            "name" : "TowerBendPoint.002",
            "translation" : [
                0,
                0,
                80.29280090332031
            ]
        },
        {
            "mesh" : 1,
            "name" : "Outline.008",
            "translation" : [
                -96.02919006347656,
                169.17391967773438,
                17.38278579711914
            ]
        },
        {
            "name" : "SignatureBendPoint.004",
            "translation" : [
                0.027692794799804688,
                145.88600158691406,
                -9.987445831298828
            ]
        },
        {
            "name" : "SignatureBendPoint.005",
            "translation" : [
                0.027692794799804688,
                145.88600158691406,
                -9.987445831298828
            ]
        }
    ],
    "materials" : [
        {
            "doubleSided" : true,
            "emissiveFactor" : [
                0,
                0,
                0
            ],
            "name" : "SaddleBrown.002",
            "pbrMetallicRoughness" : {
                "baseColorFactor" : [
                    0.25818291306495667,
                    0.05951124429702759,
                    0.006512089632451534,
                    1
                ],
                "metallicFactor" : 0,
                "roughnessFactor" : 0.5
            }
        },
        {
            "doubleSided" : true,
            "emissiveFactor" : [
                0,
                0,
                0
            ],
            "name" : "WhiteStripe.002",
            "pbrMetallicRoughness" : {
                "baseColorFactor" : [
                    0.800000011920929,
                    0.800000011920929,
                    0.800000011920929,
                    1
                ],
                "metallicFactor" : 0,
                "roughnessFactor" : 0.5
            }
        }
    ],
    "meshes" : [
        {
            "name" : "Cube.002",
            "primitives" : [
                {
                    "attributes" : {
                        "POSITION" : 0,
                        "NORMAL" : 1,
                        "TEXCOORD_0" : 2
                    },
                    "indices" : 3,
                    "material" : 0
                },
                {
                    "attributes" : {
                        "POSITION" : 4,
                        "NORMAL" : 5,
                        "TEXCOORD_0" : 6
                    },
                    "indices" : 7,
                    "material" : 1
                }
            ]
        },
        {
            "name" : "Plane.012",
            "primitives" : [
                {
                    "attributes" : {
                        "POSITION" : 8,
                        "NORMAL" : 9,
                        "TEXCOORD_0" : 10
                    },
                    "indices" : 11
                }
            ]
        }
    ],
    "accessors" : [
        {
            "bufferView" : 0,
            "componentType" : 5126,
            "count" : 6856,
            "max" : [
                84.49208068847656,
                96.96149444580078,
                8.596450805664062
            ],
            "min" : [
                -81.93333435058594,
                -88.89399719238281,
                -24.250213623046875
            ],
            "type" : "VEC3"
        },
        {
            "bufferView" : 1,
            "componentType" : 5126,
            "count" : 6856,
            "type" : "VEC3"
        },
        {
            "bufferView" : 2,
            "componentType" : 5126,
            "count" : 6856,
            "type" : "VEC2"
        },
        {
            "bufferView" : 3,
            "componentType" : 5123,
            "count" : 10284,
            "type" : "SCALAR"
        },
        {
            "bufferView" : 4,
            "componentType" : 5126,
            "count" : 6336,
            "max" : [
                84.49208068847656,
                68.96732330322266,
                8.596450805664062
            ],
            "min" : [
                -81.93333435058594,
                -85.55575561523438,
                -24.250213623046875
            ],
            "type" : "VEC3"
        },
        {
            "bufferView" : 5,
            "componentType" : 5126,
            "count" : 6336,
            "type" : "VEC3"
        },
        {
            "bufferView" : 6,
            "componentType" : 5126,
            "count" : 6336,
            "type" : "VEC2"
        },
        {
            "bufferView" : 7,
            "componentType" : 5123,
            "count" : 9504,
            "type" : "SCALAR"
        },
        {
            "bufferView" : 8,
            "componentType" : 5126,
            "count" : 1304,
            "max" : [
                60.89909744262695,
                10.5513916015625,
                -8.949836730957031
            ],
            "min" : [
                18.00495147705078,
                -3.0611228942871094,
                -22.315147399902344
            ],
            "type" : "VEC3"
        },
        {
            "bufferView" : 9,
            "componentType" : 5126,
            "count" : 1304,
            "type" : "VEC3"
        },
        {
            "bufferView" : 10,
            "componentType" : 5126,
            "count" : 1304,
            "type" : "VEC2"
        },
        {
            "bufferView" : 11,
            "componentType" : 5123,
            "count" : 2316,
            "type" : "SCALAR"
        }
    ],
    "bufferViews" : [
        {
            "buffer" : 0,
            "byteLength" : 82272,
            "byteOffset" : 0
        },
        {
            "buffer" : 0,
            "byteLength" : 82272,
            "byteOffset" : 82272
        },
        {
            "buffer" : 0,
            "byteLength" : 54848,
            "byteOffset" : 164544
        },
        {
            "buffer" : 0,
            "byteLength" : 20568,
            "byteOffset" : 219392
        },
        {
            "buffer" : 0,
            "byteLength" : 76032,
            "byteOffset" : 239960
        },
        {
            "buffer" : 0,
            "byteLength" : 76032,
            "byteOffset" : 315992
        },
        {
            "buffer" : 0,
            "byteLength" : 50688,
            "byteOffset" : 392024
        },
        {
            "buffer" : 0,
            "byteLength" : 19008,
            "byteOffset" : 442712
        },
        {
            "buffer" : 0,
            "byteLength" : 15648,
            "byteOffset" : 461720
        },
        {
            "buffer" : 0,
            "byteLength" : 15648,
            "byteOffset" : 477368
        },
        {
            "buffer" : 0,
            "byteLength" : 10432,
            "byteOffset" : 493016
        },
        {
            "buffer" : 0,
            "byteLength" : 4632,
            "byteOffset" : 503448
        }
    ],
    "buffers" : [
        {
            "byteLength" : 508080,
            "uri" : "data:application/octet-stream;base64,"
        }
    ]
}
